<svg xmlns="http://www.w3.org/2000/svg" viewBox="0 0 30 20">
  <rect fill="#DE2910" width="30" height="20"/>
  <g fill="#FFDE00">
    <path d="M5,5 L6.5,8.5 L10,9 L6.5,10.5 L5,14 L3.5,10.5 L0,9 L3.5,8.5 z"/>
    <path d="M13,3 L14,5 L16,5.5 L14,6.5 L13,8.5 L12,6.5 L10,5.5 L12,5 z"/>
    <path d="M15,8 L16,10 L18,10.5 L16,11.5 L15,13.5 L14,11.5 L12,10.5 L14,10 z"/>
    <path d="M13,13 L14,15 L16,15.5 L14,16.5 L13,18.5 L12,16.5 L10,15.5 L12,15 z"/>
    <path d="M17,11 L18,13 L20,13.5 L18,14.5 L17,16.5 L16,14.5 L14,13.5 L16,13 z"/>
  </g>
</svg>
